<?xml version="1.0" encoding="UTF-8" standalone="no"?>
<!DOCTYPE svg PUBLIC "-//W3C//DTD SVG 20010904//EN"
              "http://www.w3.org/TR/2001/REC-SVG-20010904/DTD/svg10.dtd">

<svg xmlns="http://www.w3.org/2000/svg"
     width="0.676667in" height="0.623333in"
     viewBox="0 0 203 187">
  <path id="Selection #1"
        fill="none" stroke="black" stroke-width="1"
        d="M 168.00,129.94
           C 159.59,132.50 153.85,136.53 150.18,144.67
             142.90,160.85 154.04,179.84 172.00,180.63
             176.39,180.82 179.97,180.30 184.00,178.48
             208.17,167.60 201.56,130.86 175.00,129.94
             172.25,129.59 170.69,129.76 168.00,129.94 Z
           M 47.75,139.25
           C 47.75,139.25 38.25,137.58 38.25,137.58
             38.25,137.58 5.00,182.00 5.00,182.00
             7.34,182.00 44.28,181.97 61.00,182.00
             61.00,182.00 72.00,182.00 72.00,182.00
             92.09,181.76 113.13,169.68 119.64,150.00
             122.32,141.91 122.01,137.24 122.00,129.00
             121.96,104.01 103.13,87.44 85.00,73.00
             71.23,62.04 56.44,53.22 62.77,33.00
             69.09,12.84 97.21,8.95 109.44,27.81
             112.09,34.27 104.19,45.75 100.09,51.18
             101.69,52.38 105.96,54.27 107.06,54.19
             109.50,51.56 137.00,8.00 137.00,8.00
             134.23,8.00 86.75,6.99 78.00,7.00
             51.62,7.04 30.61,27.56 30.01,54.00
             29.45,78.89 49.40,93.83 67.00,108.00
             76.59,115.72 90.10,127.90 90.91,141.00
             92.49,166.66 64.17,180.57 43.00,168.47
             30.50,156.25 44.75,144.50 47.75,139.25 Z" />
</svg>
